#!OML:ASF E:\Steps\Project 1\Capture day 1\Session 2\Subject.ASF
:FULLY-SPECIFIED
:DEGREES
315
root 9.17739 15.4897 31.5856 -142.977 0.270025 179.342
lowerback -14.2763 -1.37634 -5.3247
upperback 1.93071 -0.829802 -0.207592
thorax 10.2331 -0.682879 2.60237
lowerneck -8.29333 -3.48833 3.02369
upperneck 12.736 -4.49319 -3.17545
head 5.04201 -2.18762 -1.77071
rclavicle 2.18663e-015 7.95139e-015
rhumerus -39.3949 -20.3197 -73.8945
rradius 24.9346
rwrist 3.58492
rhand -5.67851 -51.1942
rfingers 7.12502
rthumb 20.1414 -80.1701
lclavicle 2.18663e-015 7.95139e-015
lhumerus -35.6058 -0.799448 78.492
lradius 23.2248
lwrist -4.93986
lhand -18.8913 -11.7514
lfingers 7.12502
lthumb 7.41004 18.0988
rfemur -54.9695 9.12575 17.8147
rtibia 41.3318
rfoot -33.9423 -9.6945
rtoes -24.586
lfemur -57.7083 -8.66 -16.1124
ltibia 45.25
lfoot -23.9459 1.5415
ltoes -30.9204
316
root 9.17667 15.4277 31.5561 -142.903 0.343512 179.381
lowerback -14.4388 -1.37755 -5.28162
upperback 2.14293 -0.824364 -0.221084
thorax 10.5628 -0.690394 2.5607
lowerneck -8.36697 -3.46186 2.99093
upperneck 12.683 -4.46817 -3.12317
head 5.0411 -2.17646 -1.74859
rclavicle 1.07344e-014 1.47101e-014
rhumerus -38.6004 -20.3091 -74.3281
rradius 24.799
rwrist 3.63465
rhand -5.56426 -51.4681
rfingers 7.12502
rthumb 20.2512 -80.4324
lclavicle 1.07344e-014 1.47101e-014
lhumerus -34.9443 -0.515843 78.517
lradius 22.9024
lwrist -5.28009
lhand -19.105 -12.1333
lfingers 7.12502
lthumb 7.20378 17.7241
rfemur -55.7046 8.8606 18.045
rtibia 42.9016
rfoot -34.7842 -9.21783
rtoes -24.5004
lfemur -58.4106 -8.32438 -16.3051
ltibia 46.6634
lfoot -24.3426 1.2141
ltoes -30.9195
317
root 9.17816 15.3641 31.5254 -142.972 0.405017 179.373
lowerback -14.0827 -1.37497 -5.20075
upperback 2.1087 -0.847831 -0.314801
thorax 10.3154 -0.686437 2.41153
lowerneck -8.76229 -3.19199 2.58623
upperneck 10.123 -4.45463 -1.04311
head 4.38283 -2.12823 -1.01506
rclavicle 1.09332e-014 1.47101e-014
rhumerus -38.3363 -20.2781 -74.6135
rradius 24.6287
rwrist 3.83703
rhand -5.5138 -50.9796
rfingers 7.12502
rthumb 20.2997 -79.9387
lclavicle 1.09332e-014 1.47101e-014
lhumerus -34.8073 -0.402589 78.4572
lradius 22.7865
lwrist -5.48402
lhand -19.3115 -12.3044
lfingers 7.12502
lthumb 7.00449 17.5597
rfemur -56.1964 8.58403 18.2812
rtibia 44.4131
rfoot -35.6106 -8.80087
rtoes -24.3135
lfemur -58.8659 -8.09941 -16.5094
ltibia 47.9183
lfoot -24.7729 0.6083
ltoes -28.9964
318
root 9.1802 15.2967 31.4911 -143.076 0.559321 179.273
lowerback -13.8049 -1.34083 -5.30205
upperback 2.09948 -0.788794 -0.422317
thorax 10.1389 -0.655066 2.36872
lowerneck -8.95778 -3.15456 2.3759
upperneck 8.14419 -4.53376 0.128748
head 4.23832 -2.14327 -0.67085
rclavicle -1.19271e-015 7.95139e-016
rhumerus -38.12 -20.1526 -74.9088
rradius 24.5659
rwrist 3.93973
rhand -5.73217 -50.4783
rfingers 7.12502
rthumb 20.0898 -79.4596
lclavicle -1.19271e-015 7.95139e-016
lhumerus -34.5554 -0.147374 78.348
lradius 22.602
lwrist -5.64067
lhand -19.178 -12.7066
lfingers 7.12502
lthumb 7.13335 17.1531
rfemur -56.6872 8.44329 18.2935
rtibia 46.0136
rfoot -36.4586 -8.39932
rtoes -23.8621
lfemur -59.1973 -7.90858 -16.8489
ltibia 49.1631
lfoot -25.3199 0.113553
ltoes -27.8581
319
root 9.18578 15.2322 31.4562 -143.283 0.679597 179.037
lowerback -13.7257 -1.35441 -5.62312
upperback 2.32495 -0.74099 -0.487236
thorax 10.3459 -0.657603 2.48875
lowerneck -10.1196 -3.15806 2.7866
upperneck 8.52761 -4.60545 -0.229541
head 4.59455 -2.17652 -0.905621
rclavicle -1.27222e-014 1.51076e-014
rhumerus -37.4875 -19.9184 -75.3651
rradius 24.5572
rwrist 3.91512
rhand -6.0461 -50.6937
rfingers 7.12502
rthumb 19.788 -79.7064
lclavicle -1.27222e-014 1.51076e-014
lhumerus -33.914 0.21573 78.3468
lradius 22.3399
lwrist -5.94375
lhand -19.1245 -12.6336
lfingers 7.12502
lthumb 7.18499 17.2245
rfemur -57.0115 8.24261 18.2359
rtibia 47.4695
rfoot -37.0433 -8.37459
rtoes -24.6209
lfemur -59.4059 -7.79832 -17.3323
ltibia 50.464
lfoot -25.8836 -0.442145
ltoes -27.0453
320
root 9.18412 15.1645 31.4089 -143.538 0.70788 178.892
lowerback -13.2272 -1.36848 -5.62229
upperback 2.18788 -0.786233 -0.580156
thorax 9.9053 -0.661089 2.38459
lowerneck -9.8709 -3.1041 2.48482
upperneck 8.11363 -4.53562 0.327462
head 4.4153 -2.1296 -0.645535
rclavicle 2.10712e-014 3.53837e-014
rhumerus -37.5382 -19.5327 -75.6651
rradius 24.6559
rwrist 3.91635
rhand -6.06985 -50.8453
rfingers 7.12502
rthumb 19.7652 -79.8604
lclavicle 2.10712e-014 3.53837e-014
lhumerus -34.0614 0.310805 78.3467
lradius 22.309
lwrist -6.11376
lhand -19.2412 -12.2772
lfingers 7.12502
lthumb 7.07233 17.5847
rfemur -57.1502 7.92398 18.3413
rtibia 48.6905
rfoot -37.3538 -8.71816
rtoes -26.637
lfemur -59.5048 -7.83629 -17.6575
ltibia 51.6847
lfoot -26.4096 -0.636563
ltoes -27.4186
